<mxfile host="app.diagrams.net" modified="2024-05-20T10:53:18.524Z" agent="Mozilla/5.0 (Windows NT 10.0; Win64; x64) AppleWebKit/537.36 (KHTML, like Gecko) Chrome/124.0.0.0 Safari/537.36" etag="IfpDJ9hERpyxC3KJdrpe" version="24.4.4" type="github">
  <diagram id="C5RBs43oDa-KdzZeNtuy" name="Page-1">
    <mxGraphModel dx="765" dy="745" grid="0" gridSize="10" guides="1" tooltips="1" connect="1" arrows="1" fold="1" page="1" pageScale="1" pageWidth="1169" pageHeight="827" math="0" shadow="0">
      <root>
        <mxCell id="WIyWlLk6GJQsqaUBKTNV-0" />
        <mxCell id="WIyWlLk6GJQsqaUBKTNV-1" parent="WIyWlLk6GJQsqaUBKTNV-0" />
        <mxCell id="InkFZemtt1y-9OFiI00L-0" value="&lt;font data-font-src=&quot;https://fonts.googleapis.com/css?family=Vazirmatn&quot; face=&quot;Vazirmatn&quot;&gt;کاربر&lt;/font&gt;" style="rounded=1;whiteSpace=wrap;html=1;" vertex="1" parent="WIyWlLk6GJQsqaUBKTNV-1">
          <mxGeometry x="962" y="128" width="120" height="60" as="geometry" />
        </mxCell>
        <mxCell id="InkFZemtt1y-9OFiI00L-1" value="&lt;font face=&quot;Vazirmatn&quot;&gt;وبسایت&lt;/font&gt;" style="rounded=1;whiteSpace=wrap;html=1;" vertex="1" parent="WIyWlLk6GJQsqaUBKTNV-1">
          <mxGeometry x="599" y="125" width="120" height="60" as="geometry" />
        </mxCell>
        <mxCell id="InkFZemtt1y-9OFiI00L-2" value="&lt;font face=&quot;Vazirmatn&quot;&gt;پایگاه داده&lt;/font&gt;" style="rounded=1;whiteSpace=wrap;html=1;" vertex="1" parent="WIyWlLk6GJQsqaUBKTNV-1">
          <mxGeometry x="194" y="128" width="120" height="60" as="geometry" />
        </mxCell>
        <mxCell id="InkFZemtt1y-9OFiI00L-3" value="&lt;font face=&quot;Vazirmatn&quot;&gt;سرویس پروفایل&lt;/font&gt;" style="rounded=1;whiteSpace=wrap;html=1;" vertex="1" parent="WIyWlLk6GJQsqaUBKTNV-1">
          <mxGeometry x="194" y="470" width="120" height="60" as="geometry" />
        </mxCell>
        <mxCell id="InkFZemtt1y-9OFiI00L-4" value="&lt;font face=&quot;Vazirmatn&quot;&gt;صفحه جزئیات پست&lt;/font&gt;" style="rounded=1;whiteSpace=wrap;html=1;" vertex="1" parent="WIyWlLk6GJQsqaUBKTNV-1">
          <mxGeometry x="599" y="470" width="120" height="60" as="geometry" />
        </mxCell>
        <mxCell id="InkFZemtt1y-9OFiI00L-5" value="&lt;font face=&quot;Vazirmatn&quot;&gt;سرویس پست&lt;/font&gt;" style="rounded=1;whiteSpace=wrap;html=1;" vertex="1" parent="WIyWlLk6GJQsqaUBKTNV-1">
          <mxGeometry x="962" y="470" width="120" height="60" as="geometry" />
        </mxCell>
      </root>
    </mxGraphModel>
  </diagram>
</mxfile>
